<svg width="43" height="31" viewBox="0 0 43 31" fill="none" xmlns="http://www.w3.org/2000/svg">
<path d="M36.12 13.5246C36.3955 12.8057 36.55 12.0196 36.55 11.2C36.55 7.63901 33.6609 4.74995 30.1 4.74995C28.7764 4.74995 27.5402 5.15308 26.5189 5.83839C24.6578 2.61339 21.1842 0.449951 17.2 0.449951C11.2606 0.449951 6.45 5.26058 6.45 11.2C6.45 11.3814 6.45672 11.5628 6.46344 11.7442C2.70094 13.0678 0 16.6556 0 20.875C0 26.2164 4.33359 30.55 9.675 30.55H34.4C39.1502 30.55 43 26.7001 43 21.95C43 17.791 40.0438 14.3175 36.12 13.5246ZM26.4316 17.65H22.0375V25.175C22.0375 25.7662 21.5538 26.25 20.9625 26.25H17.7375C17.1463 26.25 16.6625 25.7662 16.6625 25.175V17.65H12.2684C11.3077 17.65 10.8306 16.4943 11.5092 15.8157L18.5908 8.73417C19.0073 8.31761 19.6927 8.31761 20.1092 8.73417L27.1908 15.8157C27.8694 16.4943 27.3856 17.65 26.4316 17.65Z" fill="#001A5F"/>
</svg>
