<svg xmlns="http://www.w3.org/2000/svg" width="467.999" height="5.266" viewBox="0 0 467.999 5.266">
  <path id="Path_3846" data-name="Path 3846" d="M-154.356,124.27c-.007.015-.067.06-.037.1.089.125-.232.2-1.047.247-.5.028-.882.1-1.37.137-1.724.133-3.6.191-5.518.221-.286,0-.611,0-.874-.018a41.538,41.538,0,0,0-5.444.053c-.154.011-.314.036-.451.033-2.331-.052-4.219.183-6.413.214-2.029.028-4.061.055-6.095.069-.609,0-1.227-.043-1.849-.056-.492-.01-1.034-.022-1.494,0-2.211.095-4.434.094-6.708.064-2.335-.031-4.69-.029-7.036-.041-.637,0-1.305.013-1.912-.009-2.7-.095-5.214.058-7.8.114-.661.014-1.342.008-2.014.007q-3.324,0-6.643-.011c-1.875,0-3.751-.022-5.626-.02-1.531,0-3.059.037-4.592.039-1.873,0-3.749-.015-5.622-.028-1.776-.013-3.547-.072-5.3.041-.46.029-1.108.016-1.635,0-1.01-.033-1.9-.012-2.858.049-.752.048-1.639.062-2.476.068-1.277.009-2.571-.013-3.74.092-.139.013-.323.019-.488.02-1.869.018-3.74.05-5.6.045-1.7,0-3.384-.052-5.08-.076-.5-.007-1.01,0-1.513.005-1.563.016-3.126.035-4.692.05-.594.006-1.208-.009-1.791.005-3.341.084-6.717.082-10.086.1-.724,0-1.446.023-2.17.024-.672,0-1.351-.02-2.021-.015-1.056.008-2.118.018-3.157.046-1.949.052-3.794-.018-5.665-.077-.557-.018-1.184-.03-1.724-.01q-4.586.166-9.288.131c-1.828-.012-3.662-.023-5.481-.051-2.626-.042-5.238-.1-7.859-.148-.494-.009-1.073-.01-1.5.02-.939.066-1.884.059-2.875.061-3.025.006-6.047.028-9.069.042-.637,0-1.275,0-1.912-.007q-2.114-.007-4.226-.015-4.293-.017-8.581-.037c-2.177-.012-4.349-.031-6.524-.043-.371,0-.789.006-1.114.03-1.455.109-2.992.128-4.594.135s-3.22.053-4.829.083c-.256,0-.509.016-.763.015q-4.937-.01-9.871-.025c-.631,0-1.251-.045-1.882-.05-.965-.008-1.969-.022-2.9.007-1.268.041-2.506.077-3.805.051-2.322-.044-4.6.015-6.882.068-1.2.028-2.357.028-3.547-.021-.85-.035-1.765-.037-2.649-.053-1.229-.023-2.47-.038-3.686-.072-2.073-.057-4.133-.08-6.244-.043-2.233.04-4.46.06-6.739.007-1.7-.04-3.486,0-5.234,0-1.409,0-2.823,0-4.228.013q-1.6.017-3.2.066c-1.67.049-3.4.06-5.1.078-1.273.014-2.554.013-3.833.017-1.162,0-2.266-.026-3.389-.081a25.657,25.657,0,0,0-3.458.051,35.734,35.734,0,0,1-4.172.125c-.607-.017-1.271,0-1.9.014q-3.74.068-7.478.141c-.33.006-.674-.011-1.013-.011-1.316,0-2.636-.005-3.944.01-2.634.033-5.258.085-7.894.114-1.789.02-3.59.017-5.385.02-.811,0-1.624-.014-2.433-.01-2.626.01-5.256-.079-7.888.026-.922.037-1.958.009-2.94.012-1.06,0-2.123,0-3.183.01-2.513.018-5.024.052-7.536.057-3.077.006-6.158-.02-9.234-.014-1.39,0-2.771.066-4.165.077-1.984.016-3.987.083-5.962-.02a25.834,25.834,0,0,0-2.636-.017c-.466.023-1.013.012-1.522.012l-6.509-.007c-1.578,0-3.165.014-4.739,0-3.458-.031-6.814.047-10.151.171q-4.228.156-8.479.3c-1.682.054-3.378.009-5.08,0-2.927-.023-5.878.005-8.816.026-1.394.009-2.782.048-4.169.078-.711.015-1.409.045-2.123.06-.787.016-1.6.043-2.374.03-3.76-.058-7.5-.051-11.268,0-1.68.024-3.4,0-5.1-.022-1.83-.018-3.655-.05-5.483-.077-.679-.01-1.364-.016-2.031-.035-1.843-.052-3.671-.114-5.514-.165-1.539-.043-2.932-.129-4.228-.258-.408-.041-.919-.06-1.4-.081-.854-.037-1.73-.063-2.58-.1-1.058-.049-2.1-.107-3.148-.159a13.71,13.71,0,0,1-2.073-.211,23.554,23.554,0,0,0-3.246-.414c-1.145-.086-2.025-.245-3.072-.362a6.914,6.914,0,0,1-2.983-.739c-.369-.275-.273-.54-.187-.808.037-.123.6-.245,1.034-.359a10.168,10.168,0,0,1,1.476-.306,23.863,23.863,0,0,1,4.265-.318c.848.02,1.615-.026,2.441-.072,1.292-.074,2.732-.093,4.117-.127,1.054-.025,2.125-.035,3.185-.054.291-.005.6-.015.852-.037,2.641-.227,5.472-.3,8.506-.261.928.011,1.9-.056,2.851-.087.451-.014.9-.034,1.353-.039,1.7-.02,3.4-.035,5.1-.055,2.168-.025,4.347-.04,6.5-.085,2.96-.062,5.871.016,8.8.031,1.4.007,2.823-.02,4.224-.007,1.7.016,3.393.051,5.078.089,1.641.036,3.261.091,4.9.124.746.014,1.524,0,2.287-.01.638-.005,1.279-.029,1.91-.023q4.651.047,9.308.037c1.056,0,2.118.037,3.177.058.128,0,.256.009.381.008,3.111-.024,6.194.077,9.336.021,3.608-.064,7.241-.044,10.847.053,2.142.058,4.358.066,6.465.142,4.033.146,8.109.194,12.226.171,2-.011,3.987-.066,5.984-.1.581-.009,1.177.005,1.763,0,1.483-.016,2.962-.042,4.447-.054.807-.007,1.62.007,2.431.012l2.923.02c.128,0,.258,0,.386,0,2.964.037,5.941.058,8.887.114,3.2.062,6.387.129,9.622.119.171,0,.347,0,.514,0,2.025-.055,4.059-.06,6.116-.06,1.633,0,3.263-.06,4.9-.092,2.673-.052,5.349-.041,8.033-.018,1.661.014,3.335,0,5,0,.64,0,1.418.053,1.782.033.945-.054,1.836-.013,2.738-.025,1.058-.014,2.129,0,3.194-.006.5,0,1-.018,1.5-.027.243,0,.49-.012.735-.011q2.3.007,4.6.018c.77,0,1.539,0,2.307.008l7.951.06c.338,0,.694,0,1.021-.014a27.841,27.841,0,0,1,2.875.026c.488.031,1.09.026,1.646.03,2.777.02,5.561.031,8.334.06,1.736.018,3.473.1,5.188.085,2.578-.019,5.125,0,7.673.035,1.609.023,3.2.079,4.8.11,2.84.055,5.681.117,8.534.15,3.276.039,6.58.062,9.817-.047,2.025-.068,4.039-.09,6.1-.077.549,0,1.125,0,1.654-.024,2.088-.085,4.156-.035,6.242,0,.791.013,1.637.009,2.413-.017,1.86-.062,3.718-.024,5.579-.018.466,0,.928.02,1.4.026,2.548.038,5.1.082,7.649.108,1.83.019,3.673.019,5.511.019,2.6,0,5.208-.018,7.807-.009,2.715.009,5.477,0,8.124.072,2.283.062,4.575.073,6.854.116,1.986.037,4.022.047,6.017.028,2.281-.022,4.495.061,6.754.053,1.11,0,2.222.022,3.328.015,4.7-.028,9.388-.069,14.084-.093,2.643-.014,5.29,0,7.933-.009,1.32,0,2.652-.023,3.953-.056,2.146-.053,4.258,0,6.392.01,3.328.022,6.663.013,10,.018,2.613,0,5.229.028,7.833.01,3.8-.026,7.588-.082,11.383-.126.256,0,.514-.012.768-.009,2.968.026,5.869-.073,8.807-.1,1.739-.017,3.5.022,5.253.03,1.364.007,2.73,0,4.1.01q3.779.021,7.558.049c.9.006,1.8.012,2.693.012,3.465,0,6.934-.017,10.394,0,2.036.01,4.078.059,6.086.116,1.752.05,3.473.04,5.227.023,4.1-.039,8.2-.07,12.3-.027.215,0,.436,0,.637.011,2.665.114,5.334.227,7.99.346C-154.972,123.665-154.033,123.867-154.356,124.27Z" transform="translate(622.293 -121.924)"/>
</svg>
