<svg xmlns="http://www.w3.org/2000/svg" width="789" height="687" viewBox="0 0 789 687" fill="none">
<g clip-path="url(#clip0_0_3)">
<path d="M288.6 502.1C292.7 491.8 296.5 482.1 300.5 472.4C331.8 396.2 370.8 324.3 419.7 257.9C449.8 217.1 482.9 178.9 519.8 144C576.2 90.9 638.5 46.1 709 13.6C719.6 8.69999 730.7 4.69999 741.6 0.599988C743.5 -0.100012 746.1 -0.200012 748.1 0.299988C759.6 3.09999 771 6.09999 782.5 9.09999C789.1 10.8 790 12.6 787.6 18.9C784 28.1 780.4 37.2 777 46.5C775.7 50.1 773.5 52.6 770.1 54.4C744.5 67.8 720.2 83.3 696.9 100.4C663.5 125 632.9 152.7 604.5 182.9C561.9 228.2 525 277.9 492.4 330.8C430.6 431.1 384.3 538.4 350.7 651.2C347.7 661.2 345.1 671.4 342.3 681.4C340.8 686.8 336.2 688 332.2 684C305.2 657 275.2 633.8 243.4 612.9C185.8 574.9 124.5 543.8 61.1 517C47.9 511.4 34.5 506.2 21.1 501.2C16.3 499.4 13.6 496.7 12.6 491.5C8.50001 469.7 4.10001 448 0.100009 426.2C-0.299991 424 0.600009 421.2 1.80001 419.2C15.7 396.4 29.7 373.6 43.6 350.8C45.6 347.4 48.4 346 52.1 345.6C56.8 345 61.5 344.5 66.1 343.4C70.3 342.5 74.2 342.6 78.2 344.1C86.6 347.3 94.6 350.7 101.9 356.4C162.6 404 223.4 451.3 284.2 498.7C285.5 499.8 286.8 500.7 288.6 502.1Z" fill="#299740"/>
</g>
<defs>
<clipPath id="clip0_0_3">
<rect width="788.9" height="686.5" fill="white"/>
</clipPath>
</defs>
</svg>