<svg xmlns="http://www.w3.org/2000/svg" width="246.29" height="76.607" viewBox="0 0 246.29 76.607">
  <g id="Group_460" data-name="Group 460" transform="translate(0 0)">
    <g id="Group_110" data-name="Group 110" transform="translate(3 6.183)">
      <rect id="Rectangle_8" data-name="Rectangle 8" width="240" height="64" rx="20" transform="translate(-0.343)" fill="#ef6e6e"/>
    </g>
    <g id="Group_134" data-name="Group 134" transform="translate(246.29 76.607) rotate(180)">
      <path id="Path_389" data-name="Path 389" d="M26.091,3.355c-.178.818-.4,1.6-.6,2.3a14.178,14.178,0,0,1-.706,1.721c-.423.9-.669,1.233-.518.625a21.265,21.265,0,0,1-1.629,3.58A16.726,16.726,0,0,1,21.5,13.407c-.569.814-.662,1.062-.647,1.648a18.874,18.874,0,0,1-2.1,2.448A14.924,14.924,0,0,1,16.9,19.018c-.478.288-.729.377-.623.2s.588-.61,1.437-1.519a27.688,27.688,0,0,1-4.988,3.837A27.656,27.656,0,0,1,6.9,24.055a28.947,28.947,0,0,0,3.641-1.16,29.456,29.456,0,0,0,3.42-1.717c-.695.86-3.509,2.262-6.531,3.09-.763.177-1.519.4-2.264.53l-2.128.347A18.57,18.57,0,0,0,0,25.619,27.985,27.985,0,0,0,13.509,22a6.767,6.767,0,0,1-.521.523l2.419-1.572c.839-.671,1.808-1.307,2.629-2.069A26.471,26.471,0,0,0,20.312,16.7a20.286,20.286,0,0,0,1.527-1.71c-.15.32.2.315-1.5,2.188a20.237,20.237,0,0,0,1.873-2.222A17.248,17.248,0,0,0,23.5,13.073l.866-1.524a12.4,12.4,0,0,0,.527-1.189,12.905,12.905,0,0,0,.519-1.492,3.625,3.625,0,0,0,.076-.8,5.926,5.926,0,0,1,.194-1.8A48.457,48.457,0,0,0,26.579,0,19.254,19.254,0,0,1,26.091,3.355Z" transform="translate(216.329 42.418)" fill="#324879"/>
      <path id="Path_390" data-name="Path 390" d="M2.032,21.735l-.76-5.218.2-8.753c-.262-.1-.474-6.475-.706-2.157.041.843.12,2.512.1,3.859C.29,8.49.574-2.174,0,.4.15,7.321.026,8.384.487,12.644.434,18.99.3,23.612.1,26.574a13.836,13.836,0,0,0,.258,2.081c.052.3.109.612.147,1.012.024.43.035.944.018,1.6l.059-1.781.853-.258c-.18-2-.095-3.883-.113-6.1l.5,5.122.124,1.281L2,31.017l.042,1.5-.1,1.5a10.549,10.549,0,0,0,.485-1.763c.1-.7.194-1.508.269-2.383.1-1.555.107-3.188.124-4.923.024-3.433-.01-6.955.156-8.966C2.258,20.977,2.62,12.015,2.032,21.735Z" transform="translate(242.402 13.74)" fill="#324879"/>
      <path id="Path_391" data-name="Path 391" d="M.013,0,0,.278Z" transform="translate(242.908 43.94)" fill="#324879"/>
      <path id="Path_392" data-name="Path 392" d="M1.088,21.394a9.828,9.828,0,0,0,.319,3.135L1.391,0C1.167.769.889,7.834.755,3.112a50.853,50.853,0,0,0,.267,9.449L.681,10.783C1.118,16.435.258,20.294,0,16.61l0,.476L1.689,32.738C1.787,26.991,1.109,28.312,1.088,21.394Z" transform="translate(9.547 23.113)" fill="#324879"/>
      <path id="Path_393" data-name="Path 393" d="M3.318,0C.139.078-.251.159.11.242,1.249.179,2.331.107,3.318,0Z" transform="translate(185.186 63.046)" fill="#324879"/>
      <path id="Path_394" data-name="Path 394" d="M0,0,.527,4.9C.384,2.94.2,1.215,0,0Z" transform="translate(11.632 44.071)" fill="#324879"/>
      <path id="Path_395" data-name="Path 395" d="M.09.018C.062.009.037-.044,0,.085l.269,2.2V2.23C.2,1.42.145.691.09.018Z" transform="translate(3.522 35.288)" fill="#324879"/>
      <path id="Path_396" data-name="Path 396" d="M0,.037,1.61,0C1.024,0,.494.018,0,.037Z" transform="translate(50.083 60.088)" fill="#324879"/>
      <path id="Path_397" data-name="Path 397" d="M0,0,.507,10.9C.267,9.451.339,14.712.059,12.414c.038.831.133,4.728.257,3.665L.3,13.854c.7,5.751.968,2.269,1.5,11.8a54.778,54.778,0,0,0-.283-11.649c-.036-1.063-.066-1.954-.1-2.854L.443,2.085Z" transform="translate(0.599 12.526)" fill="#324879"/>
      <path id="Path_398" data-name="Path 398" d="M.12,0,0,.055C.11.036.129.018.12,0Z" transform="translate(137.482 67.017)" fill="#324879"/>
      <path id="Path_399" data-name="Path 399" d="M1.052.224,1.529,0C.944.111-1.3.219,1.052.224Z" transform="translate(136.327 67.072)" fill="#324879"/>
      <path id="Path_400" data-name="Path 400" d="M0,1.858a5.676,5.676,0,0,1,.454,1.8L.058,0C.042.52.021,1.205,0,1.858Z" transform="translate(11.178 43.573)" fill="#324879"/>
      <path id="Path_401" data-name="Path 401" d="M.463,12.573l-.1-9.187L0,0C.138,3.516.232,7.627.463,12.573Z" transform="translate(9.188 34.618)" fill="#324879"/>
      <path id="Path_402" data-name="Path 402" d="M24.624,64.911c19.029-.1-4.675.773,4.068.959,5.284-.091,7.148-.458,10.441-.573-15.092.314,2.046-1.209-13.175-1.015,2.165-.664,10.977-.724,16.142-.544,5.846.64-5.108.469-6.433,1.1,6.109-.1,5.032-.221,7.625-.578,9.591.148,19.843-.787,25.57.1a84.657,84.657,0,0,0,10.477-.784c.795-.685-10.324-.36-12.9-.9.533.058,1.571.174,1.27.27l-6-.144c5.7.239-.792.684-3.838.738-2.214.015-6.617.045-6.011-.144l3.353-.148c-4.317-.217-9.524.5-14.083.129-.238-.154,1.486-.226,1.748-.321-5.108.468-10.034.44-17.6.77l4.382-.679c-1.511.188-3.5.316-5.784.4l-1.764.051c-.277,0-.665.023-.861.01l-.662-.023a16.663,16.663,0,0,1-2.739-.285,15.9,15.9,0,0,1-9.13-5.544c.393.578,1.235,1.553.591,1.1a10.354,10.354,0,0,1-2.664-3.582c-.3-.909-.207-1.217.331-.561A8.9,8.9,0,0,1,5.48,51.418l-.152-.545c-.042-.187-.053-.383-.084-.578-.04-.393-.142-.787-.152-1.2l-.033-1.264c-.008-.086,0-.248,0-.411l.01-.474.019-.955a124.134,124.134,0,0,0-.2-13.93L1.209,0c.092,1.2.167,2.486.2,3.811C.773,6.724.849,8.295.251,3.188c.336,5.014.846,3.1.872,10.632C.8,10.864.075,10.118,0,17.334.317,26.353.927,33.852,1.573,41.2c.162,1.838.324,3.666.487,5.506a23.4,23.4,0,0,0,.321,2.4c.1.734.38,1.438.538,2.157a18.637,18.637,0,0,0,1.972,4.062,20.772,20.772,0,0,0,1.368,1.888l.815.877a7.016,7.016,0,0,0,.868.848c-.041.317,1.776,2.416,4.76,4a21.368,21.368,0,0,0,4.946,1.73l1.276.188c.208.03.413.071.617.095l.609.029,1.152.072,1.336.024c-.327.061-.692.117-1.091.169-.378.046-.667.063-1.046.091-.363.018-.756.059-1.164.053L18.06,65.3A17.9,17.9,0,0,1,12.4,63.713l.963.445.531.25.585.2,1.241.433,1.349.33a10.513,10.513,0,0,0,1.4.25,10.228,10.228,0,0,0,1.419.166l1.395.076,1.618.014Z" transform="translate(10.95 4.424)" fill="#324879"/>
      <path id="Path_403" data-name="Path 403" d="M.092,0C.048.48.023.977,0,1.486A13.331,13.331,0,0,0,.092,0Z" transform="translate(12.288 39.042)" fill="#324879"/>
      <path id="Path_404" data-name="Path 404" d="M.074,0C.019-.008.027.014,0,.021.391.23.757.482,1.17.668.764.467.35.164.074,0Z" transform="translate(22.177 57.868)" fill="#324879"/>
      <path id="Path_405" data-name="Path 405" d="M.319,3.122,0,0C.037.7.083,1.583.127,2.43.193,3.237.26,3.622.319,3.122Z" transform="translate(9.755 44.644)" fill="#324879"/>
      <path id="Path_406" data-name="Path 406" d="M0,.7l.2.608L.244.045C.136-.088.045.054,0,.7Z" transform="translate(10.934 45.115)" fill="#324879"/>
      <path id="Path_407" data-name="Path 407" d="M0,.106,1.823,0A10.214,10.214,0,0,0,0,.106Z" transform="translate(53.861 63.118)" fill="#324879"/>
      <path id="Path_408" data-name="Path 408" d="M45.166,22.329c-6.617.048-.791.73-10.154.734l2.749.045c-3.359.156-7.99.2-12.778.2h-3.6c-.642.012-1.1-.032-1.6-.056a11.71,11.71,0,0,1-1.471-.114,21.743,21.743,0,0,1-5.276-1.375c.208-.012.07-.094-.2-.289s-.7-.457-1.12-.717c-.838-.534-1.567-1.206-1.135-1.183A22.16,22.16,0,0,1,5.7,15.616c-.6-.754-1.246-1.4-1.69-2.076-.241-.324-.476-.626-.7-.9-.193-.294-.377-.562-.556-.8A29.693,29.693,0,0,1,1.092,7.113,18.394,18.394,0,0,1,.7,4.3c-.021-.5-.073-.89-.059-1.47.007-.558.022-1.108.046-1.646C.547,2.1.316.567.161.118.083-.106.025-.061.006.7a36.436,36.436,0,0,0,.19,4.5c-.07-.722-.111-.261-.184-.978,0,.366-.007.717-.011,1.056.028.337.073.66.11.974A9.812,9.812,0,0,0,.419,8c.152.537.27,1.053.444,1.532l.58,1.365A26.91,26.91,0,0,0,4.82,16.1c.886,1.184-.053.4-.839-.573l-.591-.683-.383-.53c-.184-.235-.191-.19.155.437A24.756,24.756,0,0,0,7,19.012a21.628,21.628,0,0,0,5.431,3.447,16.831,16.831,0,0,0,5,1.293c1.291.146,2.059-.036,1.97-.282l1.53.057,1.412.011c.835.013,1.469.04,1.988.076,1.038.07,1.613.172,2.4.265,8.342-1.081,30.959.463,30.884-.918-3.046.054-8.009.025-12.478.321Z" transform="translate(11.604 38.45)" fill="#324879"/>
      <path id="Path_409" data-name="Path 409" d="M.013,0,0,1.287C0,.907.009.434.013,0Z" transform="translate(10.132 49.756)" fill="#324879"/>
      <path id="Path_410" data-name="Path 410" d="M2.245,0l.9,2.622c.215,14.931-.038,20.33,0,33.385-.123,1-.2-.587-.242-1.39.105,9.179-.084,22.911.331,29.592C3.228,67.13,2.94,74.8,2.675,71.9c.08,1.421.157,3.045.128,4.68-.325.433-.093-3.657-.359-3.751a9.782,9.782,0,0,0,.018,2.1c-.279-2.18-1.1,2.261-1.081-7.906.759-3.935.088,7.052.925,4.728.005-3.372-.318-2.98-.421-3.268.019-4.3.23-4.185.421-3.956-.26-1.648.1-7.052-.293-9.326-.065-8.356.629.455.619-5l-.848-3.147.16-9.075C1.646,24.833.48,39.849,0,24.833.443,26.807,1.186,20.784,1.363,13.8c.031,4.181.583,11.911.332,17.309.664-7.61.079,10.474.839,6.525A130.131,130.131,0,0,1,2.32,22.707l.078,1.6c.09-5.2-.8-9.138-.458-16.315-.027-3.567.213-2.9.411-2.272C2.224,2.707,2.058.009,2.245,0Zm.178,7.769-.084,4.772A37,37,0,0,0,2.423,7.769Z" transform="translate(11.904 0)" fill="#324879"/>
      <path id="Path_411" data-name="Path 411" d="M.069,0,0,1.529C.04,1.194.057.615.069,0Z" transform="translate(244.255 38.89)" fill="#324879"/>
      <path id="Path_412" data-name="Path 412" d="M0,0,2.917.03C1.778,0,.845,0,0,0Z" transform="translate(69.468 8.086)" fill="#324879"/>
      <path id="Path_413" data-name="Path 413" d="M0,.2,4.26,0C2.579.012,1.261.091,0,.2Z" transform="translate(101.668 5.091)" fill="#324879"/>
      <path id="Path_414" data-name="Path 414" d="M.039.815.045.673,0,0Z" transform="translate(244.344 28.573)" fill="#324879"/>
      <path id="Path_415" data-name="Path 415" d="M0,0C.65.072,1.378.137,2.374.187A11.558,11.558,0,0,0,0,0Z" transform="translate(167.293 7.271)" fill="#324879"/>
      <path id="Path_416" data-name="Path 416" d="M0,.037.258.053.784,0Z" transform="translate(102.01 5.288)" fill="#324879"/>
      <path id="Path_417" data-name="Path 417" d="M1.867,0,0,.084C.88.068,1.419.036,1.867,0Z" transform="translate(54.35 5.616)" fill="#324879"/>
      <path id="Path_418" data-name="Path 418" d="M1.814,0C1.142.021.5.048,0,.084Z" transform="translate(56.427 8.019)" fill="#324879"/>
      <path id="Path_419" data-name="Path 419" d="M3.217,0,2.339.848l-.8.917A21.343,21.343,0,0,0,0,3.653,39.272,39.272,0,0,1,3.217,0Z" transform="translate(8.805 13.539)" fill="#324879"/>
      <path id="Path_420" data-name="Path 420" d="M.609,0C.381.039.152.077,0,.116.542.089.8.039.609,0Z" transform="translate(51.979 7.464)" fill="#324879"/>
      <path id="Path_421" data-name="Path 421" d="M.1.338.1.1,0,0Z" transform="translate(241.696 46.676)" fill="#324879"/>
      <path id="Path_422" data-name="Path 422" d="M0,0,.07,3.449C.076,2.168.049.92,0,0Z" transform="translate(243.032 48.151)" fill="#324879"/>
      <path id="Path_423" data-name="Path 423" d="M0,.051C1.04.174,3.479.32,2.34.46,4.331.283,4.2-.146,0,.051Z" transform="translate(195.14 8.584)" fill="#324879"/>
      <path id="Path_424" data-name="Path 424" d="M0,.128c.115.625.2,1.4.288,2.185C.165.859.063-.416,0,.128Z" transform="translate(236.493 40.264)" fill="#324879"/>
      <path id="Path_425" data-name="Path 425" d="M0,0,.191,2.128C.137,1.38.072.661,0,0Z" transform="translate(236.781 41.014)" fill="#324879"/>
      <path id="Path_426" data-name="Path 426" d="M1.2.121A6.722,6.722,0,0,0,0,0,2.554,2.554,0,0,0,1.2.121Z" transform="translate(182.332 15.548)" fill="#324879"/>
      <path id="Path_427" data-name="Path 427" d="M0,15.232c.2.618.641,15.618.744,3,.628.487.291,8.094.447,11.458.147-2.443.4,1.215.628.473-.076-1.669-.257-3.651-.212-6.409.287-1.268.482,2.916.375,6.184.332-4.026.5,5.108.753-.59C2.513,17.171,2.285,8.565,1.366,0c.151,6.942.339,14.709.086,20.4L.908,18.009c.478-6.435.121-10.408.172-16.738L.791,15.49c-.453,6.66-.557,2.2-.656-3.046A17.8,17.8,0,0,1,0,15.232Z" transform="translate(242.967 31.189)" fill="#324879"/>
      <path id="Path_428" data-name="Path 428" d="M.015,0,0,.238c.019.209.032.467.055.6Z" transform="translate(238.178 48.4)" fill="#324879"/>
      <path id="Path_429" data-name="Path 429" d="M.572,0,0,.8C.529.2.669-.022.572,0Z" transform="translate(19.329 20.869)" fill="#324879"/>
      <path id="Path_430" data-name="Path 430" d="M0,.072V.083C0-.013,0-.036,0,.072Z" transform="translate(240.824 46.185)" fill="#324879"/>
      <path id="Path_431" data-name="Path 431" d="M.163,0A1.5,1.5,0,0,1,0,.047.7.7,0,0,0,.163,0Z" transform="translate(45.355 16.507)" fill="#324879"/>
      <path id="Path_432" data-name="Path 432" d="M.569.073A.6.6,0,0,0,.364,0C-.286.03.029.056.569.073Z" transform="translate(53.073 5.619)" fill="#324879"/>
      <path id="Path_433" data-name="Path 433" d="M.023,0C.023.016.042.032,0,.05.023.032.076.015.023,0Z" transform="translate(45.518 16.46)" fill="#324879"/>
      <path id="Path_434" data-name="Path 434" d="M1.3.183S.837.089.1,0C-.183.05.1.109,1.3.183Z" transform="translate(95.601 15.191)" fill="#324879"/>
      <path id="Path_435" data-name="Path 435" d="M.533.06,0,0Z" transform="translate(81.59 14.509)" fill="#324879"/>
      <path id="Path_436" data-name="Path 436" d="M3.44,0C2-.006.914.008,0,.031,1.052.045,2.191.043,3.44,0Z" transform="translate(190.074 6.183)" fill="#324879"/>
      <path id="Path_437" data-name="Path 437" d="M1.453,0C1.148.057.716.117,0,.19.787.112,1.205.052,1.453,0Z" transform="translate(43.902 16.55)" fill="#324879"/>
      <path id="Path_438" data-name="Path 438" d="M.9,0,0,.06.533.087Z" transform="translate(118.047 12.626)" fill="#324879"/>
      <path id="Path_439" data-name="Path 439" d="M20.578,1.223c-.519.062-.758.126-1.049.182,5.432-.226,15.413.02,16.6-.559C34.28.861,24.722.52,26.352.181,22.565.326,16.966-.08,14.926.015,21.144.332,15.6.5,11.4.7,7.584.53,12.12.233,8.833.126L0,.19,7.694.267,5.356.823,6.141.77C19.157.511,7.246,1.585,20.578,1.223Z" transform="translate(106.84 11.803)" fill="#324879"/>
      <path id="Path_440" data-name="Path 440" d="M2.086,0C1.271.035.556.078,0,.137A11.2,11.2,0,0,0,2.086,0Z" transform="translate(124.213 13.208)" fill="#324879"/>
      <path id="Path_441" data-name="Path 441" d="M0,.088,2.3,0Z" transform="translate(151.618 14.038)" fill="#324879"/>
      <path id="Path_442" data-name="Path 442" d="M.061,7.678C.225,7.45.563-.134.135,0Q.068,3.378,0,6.8Z" transform="translate(9.219 32.641)" fill="#324879"/>
      <path id="Path_443" data-name="Path 443" d="M3.033.011.493,0,0,.067C.516.13,2.188.051,3.033.011Z" transform="translate(199.928 11.628)" fill="#324879"/>
      <path id="Path_444" data-name="Path 444" d="M2.343,0A17.731,17.731,0,0,0,0,.2,17.734,17.734,0,0,0,2.343,0Z" transform="translate(128.573 11.783)" fill="#324879"/>
      <path id="Path_445" data-name="Path 445" d="M0,0A15.419,15.419,0,0,1,2.887.472c2.2,0,3.748-.221,5.989-.3C6.346.234,3.42.191,0,0Z" transform="translate(203.437 12.656)" fill="#324879"/>
      <path id="Path_446" data-name="Path 446" d="M.182,0,0,.007Z" transform="translate(212.313 12.82)" fill="#324879"/>
      <path id="Path_447" data-name="Path 447" d="M4.542,33.3q.022.282.044.581l-.057-.3c-.021.5-.043,1-.065,1.5.01.182.021.377.034.619a.609.609,0,0,0-.053-.219l-.025.482c.221,1.2.383,4.176.513,5.036.095,1.137.149,2.529.131,3.4,0-.809-.04-1.883-.162-1.561a18.8,18.8,0,0,0-.179,5.276l-.005-1.662.475,3.739c-.2,1.31-.237-1.866-.408-2.385.234,2.908-.391,5.326.02,6.674a1.134,1.134,0,0,0-.413.564,3.089,3.089,0,0,0-.16.7,4.5,4.5,0,0,0-.016,1.153c.079-.684.149-.4.223-.091s.155.635.253.089c.026.078.04.168.062.265s.065.2.094.311l.084.335.135.329.127.306.16.25c.1.145.181.241.238.255L5.4,58.8c.049.093.088.187.143.275l.182.254A3.126,3.126,0,0,0,6.1,59.8l.411.413.452.352.216.163.236.143.449.265c.3.161.611.288.887.413a16.907,16.907,0,0,0,3.212.833,18.962,18.962,0,0,0,4.014.45l3.661.017c2.31.012,4.464.029,7.22.018a16.115,16.115,0,0,0,3.929.344c1.028-.127,6.016-.186,6.525-.35-3.953-.068-3.235.137-5.6.175a19.618,19.618,0,0,0-2.869-.272c2.172.067,9.812-.089,12.19.071l-.839.022c3.8.1,4.522.5,10.847.257l3.018-.1a1.565,1.565,0,0,0-.24.05c4.94.017,3.591.2,9.045.056-.422.011-.157.029-.585.04,3.108.092,6.243-.093,8.594-.131,1.434.136-.34.134-1.228.233,5.469.052,11.371-.181,14.767-.347l3.526.08c-2.091.056-4.646.2-4.008.282,1.939-.027,1.564-.092,4.305-.065-.468.087-1.618.168-2.907.278,5.67.146,1.267-.309,5.236-.042a11.363,11.363,0,0,0,3.011-.231l3.228.138c.359-.134,4.343-.142,6.955-.162a19.393,19.393,0,0,0-3.092-.091,44.676,44.676,0,0,1,4.76-.153c.655.281,11.7-.041,9.586.29,8.026-.091,19.3-.12,24.6-.237,1.747.078,5.307.082,3.173.214,6.461,0,9.793-.287,16.2-.211.531.035-2.9,0-2.67.1,4.191-.113,7.626.119,14.129.044a8.241,8.241,0,0,0-1.565.092c-.114-.047,2.664-.1,4.346-.142.946.024-1.259.034-.728.069,12.562.137,22.133-.246,34.628-.233a22.392,22.392,0,0,0-4.954.258l3.5,0c1.347-.093,3.971-.092,6.167-.162.269.035,1.337.073.248.117,6.905.188,10.786-.34,19.248-.243l-10.247.375,2.535.131-4.505.171c2.691.1,5.031-.135,5.355.006-.569.04-1.938.027-1.981.1,2.583.055,2.786-.05,4.728-.078-5.117.287-15.149.283-20.548.353-.85.023.727-.069.877-.1-2.2.009-3.525-.08-6.3-.03-1.722.121,1.314.089,2.681.1a10.407,10.407,0,0,1-2.4.115c-.331-.141-8.356-.05-10.318-.222-8.133.044,1.3.364-6.639.3l-2.372-.161c-4.609.124-10.571.235-15.787.2l1.1-.005c.731-.069-.478-.111-1.013-.147-3.942-.069-7.484.127-9.872-.035-4.495.171-11.99.3-17.13.386-1.386-.212,6.705-.18,8.844-.313h-4.678c2.892,0,4.034-.084,5.768-.2-4.1-.039-5.449.146-9.336.2.3-.058-.217-.093-2.01-.095l-.509.141a6.833,6.833,0,0,0-.785-.031l-6.917.086c1.467.061,1.539.183,3.325.185-.638-.082.878-.1,2.666-.1-1.567.092,1.744.078,1.706.154-3.585,0-7.989.015-10.34.054l-.764-.13c-3.416-.033-7.024.039-9.341,0l.73-.069c-4.1-.04-8.134.044-11.774-.083-3.655.148-8.259.272-11.247.427-1.6.168-10.728-.21-14.85.026-.278-.018,2.831-.126,4.238-.189-2.742-.026-4.922.182-5.781.006,6.153.059-.33-.141,2.441-.191-2.881,0-5.918.035-7.331.1,4.662,0-1.656.244,3.064.167-3.657.148-8.649.207-13.007.15.043-.076-.494-.112-2.119-.143l-1.311.11c-2.039-.02,3.944-.131-.162-.17-4.224.189-12.721-.107-14.57.242-3.22-.138,6.127-.14,1.274-.309,2.823-.126,6.717.018,7.647-.156a23.509,23.509,0,0,1-2.794-.149l-3.086.107.682.007c-5.178.165-13.382.086-19.995.114l-7.669.278c-1.252.041-2.539.077-3.933.1-.712.009-1.358.033-2.32,0-.452,0-.91-.039-1.379-.082-.234-.022-.474-.037-.711-.069l-.718-.106c1.171.106-.456-.1-1.642-.431a7.891,7.891,0,0,1-1.148-.381c-.032-.025.042-.021.267.022l.454.094c.191.043.426.1.721.141a22.087,22.087,0,0,1-4.129-1.485c-.251-.126-.5-.235-.693-.343l-.514-.284a3.345,3.345,0,0,0-.505-.246c.5.353.823.552,1.023.678l.377.214a8.58,8.58,0,0,0,1.292.653,11.872,11.872,0,0,1-2.922-1.5,7.435,7.435,0,0,1-1.914-1.928c.334.421.232.255.353.334-.747-1.014-.822-1.279-.976-1.449a2.107,2.107,0,0,1-.539-1.066c.007-.13.021-.418.006-.8-.013-.2,0-.373,0-.567s0-.4.005-.614c0-.854-.011-1.809.047-2.43l-.319-1.8c.21.991.077-1.729.27-2.013A24.343,24.343,0,0,1,1.612,44.9c.109.813.158-1.8.371-1.832.2-3.373-.581-5.586-.276-8.781.05.1.189.744.243-.19-.059-.735-.034-2.023-.058-2.81l.006.025-.006-.041c-.011-.385-.038-.628-.089-.637a36.406,36.406,0,0,1-.6-4.693c-.244.195-.149,2.433-.071,3.4l.241.838c-.367.8.063,2.391-.06,3-.431-1.59-.324-6.17-.59-8.918a53.672,53.672,0,0,0-.351,8.5l.146-1.4,0,1.664.259-1.61C.738,32.989.8,34.351.79,35.775c-.005-1.667.331-2.317.278-1.373-.239,1.858.156,1.936.141,3.357.022-.791.026-1.819.166-1.156-.293,2.8-.1,3.557-.415,6.1.406-.316.041,3.182.373,3.564l.034-1.182L1.613,47.6c-.331,2.313-.337-2.048-.571,1.472-.041,3.248.385,3.164.417,5.718a22.293,22.293,0,0,1-.44-4.927L.9,51.107a47.526,47.526,0,0,1-.1-4.933c.276,2.35.085-1.1.3-2.17-.233-.2-.2,1.313-.383-.469,0,1.669.024,1.913-.064,4.037.106-4.59-.808-4.128-.612-8.135.1,1.847.336-.644.448-.866C.47,37.7.414,35.939.356,35.215l-.336.656c-.145-2.335.567-3.146.22-5.839-.2-.35-.068,2.37-.107,1.885-.212-3.686.33-5.014.584-8.287-.1-.185-.314-.147-.492-1.291.2.359.305-.488.453.8a22.276,22.276,0,0,0-.142-3.356C.418,22.06.246,18.85.125,18.43c.034-1.18.2.359.26,1.085.054-.947.352-2.073.049-2.611.213-.037.559,2.648.614,4.4l.034-1.184a10.167,10.167,0,0,1,.045,2.144c.165-1.15.346-1.037.5-.769-.031.151-.05-.084-.081.06-.054.946,0,1.673.117,1.453.286.851.179-1.313.321-1.954-.019-.484-.038-.969-.057-1.444L1.008,14.7a26.026,26.026,0,0,1,.252-4.623l-.246-.433L1.02,9.3V9.217l.009-.1L1.05,8.9a3.833,3.833,0,0,1,.127-.789c.073-.248.138-.48.219-.687.1-.2.194-.387.279-.54a1.238,1.238,0,0,1,.4-.507c.078-.018.019.119-.066.478A1.964,1.964,0,0,0,1.6,7.69a1.107,1.107,0,0,1-.009.322l.014.113A5.984,5.984,0,0,1,2.962,5.386a7.037,7.037,0,0,1,.674-.721,3.853,3.853,0,0,1,.318-.3,5.7,5.7,0,0,0-1.263,1.6c-.071.219.028.155.2,0,.19-.151.461-.392.676-.548s.4-.217.348-.051a12.255,12.255,0,0,1,4.421-2.9c-.855.331-1.288.5-1.429.566s-.045-.018.2-.158c.261-.129.663-.321,1.083-.506.442-.167.888-.341,1.209-.45a6.059,6.059,0,0,0,1.018-.217c.259-.074.581-.127.919-.2l.531-.114c.185-.035.38-.063.578-.1A23.851,23.851,0,0,1,14.924,1L16.111.954c.326,0,.609,0,.866,0l-.15.029c1.889.049,5.2.035,7.554,0C24.274.932,27.3.7,28.747.562,24.706.509,27.1.453,26.78.365c.418.008,1.17.01,1.258-.008.578-.04-.785-.054-.9-.1-4.3.066-8.715.084-10.467.282C17.99.627,18.92.453,20.4.512c-1.064.066-2.283.093-3.681.1l-.533,0-.67.018c-.459.014-.934.022-1.417.073s-.986.078-1.489.162l-.769.114c-.259.04-.511.1-.772.153l-.719.091c-.236.038-.468.083-.7.126-.682.185-1.3.431-1.929.667A17.491,17.491,0,0,0,6,2.853c.647-.39.763-.48,1.155-.7a6.141,6.141,0,0,1,.965-.444A16.456,16.456,0,0,1,10.432.991a5.031,5.031,0,0,0-.991.209c-.235.067-.512.134-.791.232l-.892.323a19.023,19.023,0,0,0-3.5,1.828c-.233.264-.463.524-.672.785.044-.082-.13.045-.379.251L2.8,4.97c-.141.127-.258.264-.375.382-.228.237-.4.414-.412.381a3.488,3.488,0,0,1,.6-.871A13.433,13.433,0,0,1,7.425,1.671c-.3.1-.594.2-.892.31s-.592.215-.865.34A20.715,20.715,0,0,1,11.144.474c-.457.127-.92.241-1.354.386C10.367.705,10.91.6,11.387.5c.489-.084.928-.147,1.316-.2.781-.1,1.379-.126,1.834-.157A15.882,15.882,0,0,1,16.192.18a35.275,35.275,0,0,0,5.064.035C23.7.025,26.325,0,31.109.051c-3.461.042-.355.134-1.658.244C32.981.374,34.172.217,36,.143c.9.1,1.539.182-1.615.168-.395.21,4.148-.036,4.436.18C49.272.485,47.2-.208,59.408.063L58.951.15C66.7.041,71.179.145,78.36.077L84.014.3c-1.265.034-4.664.2-3.077.307C78.186.381,75.268.46,72.3.339c-.3.058.9.1,1.429.136-1.788,0-2.685-.1-5.047-.064.114.046,2.691.1.749.129L66.222.4c-4.3.066-2.117.331-7.166.267A46.3,46.3,0,0,1,63.867.339c-2.307-.027,3.075-.075.97-.148-3.324.183-4.928.038-9.347.152.518-.025.656-.061,1.743-.073L50.821.194c1.586.107-5.3.117-4.7.276,6.834.066,4.826-.03,12.614.06-2.205.036-5.048.2-6.38.346-.068-.006-.18-.011-.42-.014-1.19.157.023.2,0,.474,3.556-.2,5.931-.035,10.125-.147.789-.15-2.433-.192-4.517-.153l3.693-.1-.727.069,9.376.05c-1.776.008-2.379.1-3.307.161,1.21.006,2.408.046,3.682.089-.267-.143-.1-.245,1.081-.242,6.032.034,9.386.163,11.612.327l.7-.01c-1.011-.147,4.283-.265,6.153-.415-.092.152,3.109.091,4.848.169C95.581.96,94.347.719,92.23.577a19.442,19.442,0,0,0-4.213.387l-6.544.151L82.937.976c-3.266-.061-6.4.122-6.163-.059C78.5.8,81.348.87,83.06.749L80.9.682C84.711.5,82.854.854,87.468.729c-1.7-.154.418-.011,2.4-.114C88.277.508,81.738.659,83.125.4,85.524.283,91.2.7,94.374.444l-.156.029c4.684.034,6.33-.116,8.084-.21,1.993.085,4.745-.035,6.9-.044L109.154.3,112.2.264c-1.452.139-3.572,0-6.19.016l.326.141a58.447,58.447,0,0,0-7.371.209c3.406-.122,9.619.035,10.419-.242l2.107.143L112.5.481c1.57.107-.033.275-3.077.307-.529-.036-.794-.053-.633-.083-1.413.063-2.711.173-6.13.14l1.825-.075C100.227.76,96.356.815,94.9.954c6.146.059,12.191.071,17.962.065,1.7-.32,3.722-.5,4.59-.8,3.872-.055,9.13-.1,12.492.013l-.309.058c1.641.031,3.153.014,4.414-.019,1.734.078-1.187.157.021.2l5.547-.1c-.342.134-5.009.135-7.226.145a5.654,5.654,0,0,0,.992-.052C130.8.413,126,.642,124.875.447c-1.257.034,2.552-.143-1.7-.154a18.763,18.763,0,0,0-4.072.16c-.047.076,4.469.1,2.9.2,2.217-.01,3.1-.108,5.933-.034-2.2.009-5.18.164-6.35.046-4.343.142-3.72.5-1.672.519-.488-.112,7.923-.138,2.228-.284C124.7.751,129.375.75,132.721.66l-.152.029,4.155-.036a14.379,14.379,0,0,0-1.883.15L140.6.6c-3.239.137,2.008.1,3.483.156.616-.116,2.864-.2.707-.268-2.425-.085-1.412.063-3.616.072l3.122-.184.267.018,1.88-.15c4.253.011-1.858.35,3.591.2l-.709-.2c6.309.03,14.411.26,18.868.166-1.23.116-1.772.3-.081.415-1.922-.035-5.785-.028-8.541-.009a61.137,61.137,0,0,1,6.439-.2c-1.451-.335-7.534.2-7.885-.137C150.49.357,152.429.8,145.952.6c-.089.152-1.841.074-2.182.208,1.917.248,8.659-.008,12.861.078-.411.011-1.24.034-1.4.062,3,.045,4.246.011,6.345-.046l-.265-.018c3.667-.148,2.269.113,4.427.18a27.578,27.578,0,0,0,3.355-.09L173,1.124l-.188-.169c2.205-.01,2.688.1,4.685,0L177.592.8,172.116.749c2.775-.05.773-.145,3.823-.177-3.406.166,2.409.084,2.745.225l2.243-.085-.574.04c1.76.078,2.1-.056,4.15-.037-2.423-.084-4.01-.191-7.1-.084,2.248-.085,6.705-.18,7.8-.185,2.36-.064,4.007.052,6.216.069-4.238.061,1.484.46-7.008.351a8.689,8.689,0,0,1,1.111,0,61.423,61.423,0,0,0-6.931.086c.474.112-1.451.139,1.813.2-1.071-.071,2.75-.249,5.856-.157l-.547.239,4.521.028-.423.011c1.7.154,4.825-.03,7.938.061,2.248-.085,10.872-.018,7.162-.267,2.8.15,5.248-.041,8.3-.073l-3.8-.1c4.494-.171,3.2-.061,6.8-.333.363.065,1.165.119.434.188l10.037.02c1.678,0,3.271-.013,4.68-.033A33.556,33.556,0,0,1,235.6,1c.625.117,1.177.239,1.665.369.478.145.924.266,1.31.415s.751.288,1.089.441l.987.484.978.566c.314.218.673.441,1.029.707a10.836,10.836,0,0,1,2.212,2.167c.291.407.279.228.388.274a.822.822,0,0,1,.291.35,4.463,4.463,0,0,1,.475,1.362c0,.048-.054-.1-.135-.285a2.581,2.581,0,0,0-.3-.569c-.1-.144-.157-.2-.105-.031a7.172,7.172,0,0,1,.337,1.319c.032.135.062.274.087.416l.035.216.016.185c.018.245.025.5.027.758,0,.52-.02,1.069-.045,1.634a21.992,21.992,0,0,0,.034,3.507c-.115,1.243-.071,3.4-.324,2.951a40.036,40.036,0,0,0-.116-5.18c.152.272.147-1.4.264.05a12.7,12.7,0,0,0,.01-2.415c-.023-.222-.048-.435-.06-.759-.005-.162-.007-.352,0-.585.007-.106-.006-.268-.014-.433l-.033-.549c-.06-.107-.085.307-.092.824a6.252,6.252,0,0,0-.02,1.261c-.086,0-.139-.324-.177-.78L245.39,9.3c0-.12-.034-.293-.051-.442l-.063-.466-.135-.452a3.391,3.391,0,0,0-.323-.773,1.972,1.972,0,0,0-.289-.461c-.171-.164-.089-.033.085.638l.124.289.079.281c.05.183.11.359.15.528l.074.492c.026.159.052.315.062.437.057.519.133.97.2,1.409a9.128,9.128,0,0,1,.038,2.944c-.21-.991-.032-2.541-.394-3.8l-.138,2.032.249,1.475-.05-.088c-.315,3.589.354,3.32.527,6.531.239-1.86.6.43.743-.969.043,2.147,0,3.725-.346,3.739-.281-4.017-.364-.228-.707-3.942-.123.609-.5-.884-.542,1.329.246,2.494.287-.746.4,1.741-.03.147-.062.3-.112.212.179,1.144-.064,1.335.133,2.719l-.069-.328c-.209,1.707.237,1.867.009,3.336.256-.588.21.986.369,1.9a36.9,36.9,0,0,0,.443-5.234c-.2-.355-.314-.14-.412-1.347l.024,1.91c-.033-.412-.085-.726-.125-1.1l.1-1.835c.145,2.326.36,1.26.571,2.248-.088,2.128.055,1.756-.01,3.095-.3-.134-.506,4.1-.7,6.555l.012-1.137c-.188-1.78-.248,1.225-.329,1.291l.148,1.3c-.02-.244-.089-.582-.131-.029.055,1.757.349,1.655.4,3.408-.163.132-.411-1.351-.5-.261a9.491,9.491,0,0,0-.377,3.9,8.328,8.328,0,0,1,.124,1.469c-.008-.1-.015-.22-.026-.263l-.178,1.547c-.279-1.318.131-2.666-.148-3.991l-.265-.113a18.814,18.814,0,0,0-.253-3.075c-.045,1.572.024,1.9.079,3.661-.167.246-.292-.992-.31-1.17l.151.262c.219-2.1-.254-3.135-.2-5.745.011-.394.03-.154.081-.066-.257-2.113.095-4.186-.244-6.24l.14.67c-.127-1.4-.376-4.132-.625-6.864l-.1-.022c-.062.3-.058-.722-.016-1.272v0l-.328-3.763a8.578,8.578,0,0,0-.131,1.291c.121.428.021,2.939.3,2.595-.166,1.16.072,3.029-.032,3.881.177-1.552.259,1.081.411,1.353-.174.522.013,2.3-.22,2.1a5.6,5.6,0,0,0,.015-1.422c-.217-1.626-.191,2.976-.4.951.164,2.576.093,5.97.308,8.627l.1-1.487c-.034,1.181.018,3.976-.095,4.185-.027-.878-.024-1.9-.071-3.026-.263-.054,0,2.7-.161,2.823l.436,3.261.015-1.428c.16.9-.033,3.886-.07,6.1-.36-1.27-.009-3.339-.154-5.667-.137-1.692-.348,1.045-.434-.556a7.5,7.5,0,0,0,.017,1.975l-.065.632c-.327-1.428-.255-4.63-.537-6.761a1.6,1.6,0,0,0,.11.409,37.659,37.659,0,0,0,.035-4.907,6.325,6.325,0,0,0,0,1.664c-.081.06-.116-1.45-.206-2.021-.1,1.488-.193.277-.247,1.219a25.187,25.187,0,0,1-.021-2.936c.124-.612.171.507.333.382-.1-1.216.291-1.773.1-3.553-.068,2.368-.353-.624-.462-1.439l-.011.4a3.394,3.394,0,0,1-.024-1.907c.078.969.024,1.907.217,1.631-.008-.64-.016-1.278-.074-2l.139.659-.04-3.182a12.34,12.34,0,0,0-.663-1.786,10.139,10.139,0,0,0-.033-2.55l.071.337a22.75,22.75,0,0,0-.127-4.789c.135-1,.961,7.087.821,0,0-2.694-.482-1.678-.648-3.216,0,.005.054.076.075-.055a3.311,3.311,0,0,0-.068-.573c-.056-.151-.11-.272-.165-.387a2.035,2.035,0,0,0-.218-.343,4.43,4.43,0,0,0-.3-.437,7.333,7.333,0,0,1,.5,1.581,1.31,1.31,0,0,1-.134-.423,4.706,4.706,0,0,0-.234-.7,3.939,3.939,0,0,0-.42-.758c-.1-.115-.2-.222-.289-.321a1.362,1.362,0,0,0-.283-.253c.28.169.294.171.241.058a4.741,4.741,0,0,0-.5-.506c-.459-.4-1.087-.748-.6-.516l-.385-.274c-.14-.085-.292-.165-.437-.248a9.311,9.311,0,0,0-.946-.447,11.637,11.637,0,0,0-2.1-.587c-.177-.031-.348-.067-.52-.093l-.515-.056a9.3,9.3,0,0,0-.961-.065,7.651,7.651,0,0,0-.846,0c-.267.01-.465.013-.761.033-2.757-.225-4.834.03-9.308-.074.688.007,1.936-.027,2.9,0,2.55-.143-4.636-.075-.711-.205-.839.022-.059.076.8.053a9.752,9.752,0,0,0,2.545-.144l-3.646-.126,1.273-.035-5.534-.175c-.15.029.369.065.635.082-6.418-.077-13.756.02-19.379,0-1.056.4-13.841.172-18.385.42,1.218-.116,1.884-.319,1.131-.4,1.013-.017,3.087-.18,5.384-.146.367.065,3.2.138,1.378.212,6.35-.046-.859-.177,1.014-.326-7.035.039-11.162.275-15.6.37l-.112-.048-3.353.09c2.74.027,2.605.255-.927.175l.429-.011c-2.014-.1-6.206.017-9.352,0L160.1,3.69a16.431,16.431,0,0,1-4.312-.408c-4.94-.017-7.793.184-11.3.3-1.587-.107-8.986-.133-5.066-.263-4.456.095-3.557.669-11.2.351l1.983-.1c-7.307.022-17.728.227-21.094.119,2.7-.371-9.127-.378-10.426-.742.362.083-2.383.111-2.783.156a19.522,19.522,0,0,0-2.666-.009c2.85.073-2,.378,3.445.231-2.757.25-6.309.445-12.348.432l.091-.152,4.778.046c-.483-.112,1.977-.1,2.984-.155C83.3,3.41,93.355,3.14,84.269,3.16a17.464,17.464,0,0,1-2.671.1c1.111-.005,1.311-.11-.479-.112L79.4,3.266c-3.173-.253,5.253-.165,2.545-.343,3.509-.119,9.586-.183,8.454-.377-5.73-.07-5.155.363-11.147.275l-.638-.083c-2.107.056-2.448.19-3.6.271a11.168,11.168,0,0,0-1.993-.1c-3.559.2-5.921.234-9.2.447,8.736-.16,7.469.148,16.486.006-1.413.063-7.761.109-8.151.319l.084-.152c-2.932.079-5.862.157-9.544.107l2.248-.086c-4.881.106-8.113-.231-11.964.022,1.36.014,2.464.009,3.3-.014-2.512.068-5.664.052-8.394.027l-5.649.251c.049-.076-3.53-.08-1.8-.2-4.067-.116-5.984.111-8.335.148-4.165-.161,3.609-.072,4.016-.282-5.738-.07-11.821-.007-15.058.13a8.8,8.8,0,0,1,1.679.094c-.174-.048-2.486-.036-3.775-.037l-.886.1c-2.147-.067-1.845-.125-.018-.2-.513,0-1.05,0-1.6.016-.3,0-.506.021-.732.036s-.453.02-.675.048c-.9.089-1.755.237-2.59.351a12.5,12.5,0,0,1,2.11-.394l.565-.056.571-.018c.2,0,.35-.017.591-.015h.677c1.783,0,3.356.009,4.268-.028-1.831.024-3.207.018-4.386,0-.284,0-.6-.016-.826-.015l-.663,0c-.218-.009-.429.007-.642.017s-.427.016-.643.031a14.752,14.752,0,0,0-2.846.518,9.34,9.34,0,0,0-3.4,1.784c-.125.023.549-.663-.362.055a5.556,5.556,0,0,0-.51.541,3.717,3.717,0,0,0-.214.324c-.087.148-.046.182.013.174.127-.016.381-.178.262.124A5.085,5.085,0,0,1,8.593,5.557a7.764,7.764,0,0,1,1.783-.787,3.886,3.886,0,0,0-.441.306,1.422,1.422,0,0,0-.261.1,3.525,3.525,0,0,0-.47.241l-.492.288c-.137.1-.261.18-.346.229a2.468,2.468,0,0,0-.01.283c-.041-.048-.163-.012-.344.089a2.689,2.689,0,0,0-.644.485,2.813,2.813,0,0,0-.922,1.675L6.618,8.1c.062-.1.124-.18.171-.245A1.4,1.4,0,0,1,7,7.606c.119-.09.212-.075.47-.185a3.76,3.76,0,0,0-.184.516L7.2,8.156c-.015.071-.032.139-.051.2-.033.13-.1.248-.124.366s-.054.232-.086.348a1.3,1.3,0,0,0-.045.187c-.008.078-.017.157-.026.239-.016.163-.027.336-.031.525a7.935,7.935,0,0,0,.107,1.4c-.1-.171-.176-2.172-.253-.443A10.342,10.342,0,0,0,7,13.179c-.261-1.081-.454-.8-.764-1.975-.017-1.271-.021-1.527-.024-1.777,0-.062-.006-.124-.009-.2l.008-.244c.006-.1,0-.231.016-.4.044-.164.059-.372.146-.625a2.85,2.85,0,0,0-.184.426L6.1,8.6c-.022.073-.031.146-.048.22-.028.15-.067.286-.092.451L5.908,9.8,5.886,8.723a1.857,1.857,0,0,0-.027-.4c-.048-.131-.159-.051-.188-.133A3.631,3.631,0,0,0,5.45,9.233c-.007.332,0,.607.009.842A5.536,5.536,0,0,0,5.6,11.114a6.026,6.026,0,0,1,.238,2.078c.179,1.141.037-2.217.225-.432-.038,2.213.171.5.284,2.989l-.12-.416a10.705,10.705,0,0,0,.062,2.389c.079.966.907-1.094.925,2.879-.073-.195-.119-.266-.149-.266L4.872,16.458c.005,4.026-.056,8.665-.2,13.327-.428,1.1-.353-3.328-.546-3.042l.087-2.126c.182.119.056,4.455.377,2.535-.131-3.755.078-5.459-.3-9.021-.429,1.107.076,4.692-.256,7.009a23.491,23.491,0,0,0-.08-2.592q-.085,3.264-.181,6.98l.1.556c.048-1.668.085-2.823.1-2.972-.038,2.213.2,4.078.514,4.225l.011-.393.1.8Q4.572,32.522,4.542,33.3ZM205.565,63.2a5.3,5.3,0,0,0-.552.063C205.153,63.24,205,63.223,205.565,63.2ZM30.576,1.91l-7.664-.051-3.789-.026-1.872-.012-.929,0c-.307,0-.65.012-.971.018.294,0,.592,0,.87.01l.8.033,1.538.064,2.7.119c1.6.076,2.748.143,3.156.2.822.118-1.335.165-8.71.187-.313.022-.629.025-.937.063.232-.022.491-.009.764-.018s.559-.014.881-.007l2.063.012c1.468,0,3.086,0,4.654-.014,1.27-.063,3.952-.212,6.306-.35l3.067-.186c.795-.052,1.29-.088,1.268-.1-.9-.1-2.21.009-3.844-.021Zm3.634.6c2.9.04,2.238-.039,2.687-.111l-3.044.027C34.239,2.444,34.429,2.47,34.21,2.51Zm2.514-.182c-.326,0-.6,0-.749-.014ZM4.056,18.949l-.008-.172c-.01.4-.019.791-.029,1.2A9.877,9.877,0,0,0,4.056,18.949Zm.3-3.395-.227-.4q-.013.552-.026,1.128A1.225,1.225,0,0,0,4.359,15.555ZM7.418,5.324a5.975,5.975,0,0,1,1.81-1.275c.212-.1.412-.21.609-.3s.392-.166.553-.239c.315-.154.556-.242.571-.3.093-.052-.046-.031-.316.031s-.637.2-1.04.326A13.146,13.146,0,0,0,7.141,4.817c0,.032-.11.151-.3.345a4.926,4.926,0,0,1,.922-.543c.219-.1.314-.1.232.035-.277.132-.514.25-.711.36-.179.119-.327.226-.452.326a2.127,2.127,0,0,0-.5.561c-.138.178-.214.375-.366.617l-.126.191-.12.223c-.082.159-.227.33-.317.542-.006.143.056.1.154-.055s.295-.4.48-.689A10.734,10.734,0,0,1,7.418,5.324Zm235.776,7.327c-.027.054-.1.238-.186.5l-.155-1.328c.017-.592.058-1.155.1-1.7l.07-.8c.017-.262,0-.513,0-.768a4.041,4.041,0,0,0-1.752-2.821l-.276-.3-.278-.262a6.171,6.171,0,0,0-.479-.451l-.416-.378-.413-.322.457.248c.14.086.268.175.4.259l.367.246c.109.083.2.167.3.245a8.864,8.864,0,0,1,1.051.83,7.721,7.721,0,0,1,.67.754,4.985,4.985,0,0,1,.409.648l.233.537a3.663,3.663,0,0,1,.128.79,4.614,4.614,0,0,1-.071.541A8.431,8.431,0,0,0,243.193,12.651Zm-34.181-10.6a4.155,4.155,0,0,0,.575-.041c-9.17.333-16.719.429-21.662.416.959.132,5.392.234,7.5.289l-1.867.15-1.165-.118-3.24.137c.906.1,3.522.08,5.27.158.152-.029,5.752-.2,7.317-.3l-4.474-.1c1.208.042,7.143.007,9.5-.031a27.879,27.879,0,0,0-4.52-.028c-.483-.112,4.193-.113,1.236-.233,3.5-.119,9.079-.02,11.665.036l.438.188c2.838.073,1.917-.227,5.289-.118-4.145.037.7.206-2.6.22a13.181,13.181,0,0,0,3.325.185c2.75-.249,3.483.156,6.082-.064,1.737.078-1.869.15,1.549.183.975-.031,1.713-.067,2.223-.089.486-.015.809-.037,1.029-.061a.873.873,0,0,0,.6-.171c-.216-.021-.419-.045-.615-.057l-.559-.015c-.35-.009-.667-.011-.975,0-.605.019-1.1.049-1.572.078-.946.06-1.809.12-3.308.1l2.981-.155,1.491-.078.745-.039.726-.019c-.528-.043-1.007-.056-1.434-.059s-.8,0-1.141,0c.6-.009,1.153-.025,1.666-.047s.975-.024,1.415-.047c.495,0,.96.01,1.388.032-.417-.05-.836-.078-1.241-.116-.408-.021-.809-.027-1.195-.041l-2.094-.014c-1.239-.011-2.122-.031-2.387-.07l.466-.088a36.7,36.7,0,0,0-4.046.047c-3.026.01-6.049.132-6.71.018l1.149-.08C214.108,2.039,213.693,2.05,209.012,2.051ZM87.04,1.851c2.255.322,4.74.606,15.262.55l-.828.022c5.3.2,10.338-.267,16.789-.043-3.13.121-2.962.11-6.418.388l3.358-.091c-.931.175,2.419.084,4.884.093l-2.175.208c-1.479-.06-5.313-.082-5.2-.034.84-.023-5.062-.263-8.268-.2.331.141,7.1.084,4.077.315,2.664-.1,2.994.044,5.779-.005-2.67.1-.66.192-2.649.3l4.567-.048c.119.047-6.651.1-2.909.278,1.83-.074,6.715.019,6.8-.133l.112.047c3.423.033,1.506-.215,5.709-.128a7.41,7.41,0,0,0-2.258-.114c-1.273.034-1.468.139-4.089.16-1.175-.119,3.161.015,1.341-.186-.9-.1-6.919.086-5-.139l3.416.033c.088-.152,2.562-.143,2.493-.266,2.089-.056,4.061.115,6.194-.017.886-.1-.661-.281,2.87-.2,2.758.225,10.886.181,13.93.149l2.664-.1c-.227-.093-5.091.013-3.38-.108l4.155-.037-.321.059c1.377.013,2.785-.05,4.041-.083-1.294.109-4.288.065-3.693.224,1.95.031,2.248.09,4.043.06a2.8,2.8,0,0,0-.68.049,23.368,23.368,0,0,0,4.8-.229c3.97-.206-4-.191-3.494-.355l11.59-.087c-.99.051-1.986.1-1.613.168,2.842.073.064.123,4.055.115-.284-.217,5.026-.135,7.846-.26,1.317.089,1.588.107-1.293.109.33.141,4.2.087,5.573.1.8-.035,2.155-.055,3.016-.087-1.154-.07-.661-.158,1.836-.218l.146-.029c-4.094-.039-10.457-.193-13.024-.048l.726-.069c-4.739-.122-10.311.253-12.5-.013.2-.105-.952-.024-.869-.176l-3.489.119.725-.069-5.934.034.157-.029-6.8.342c-.007.066.176.087-.764.135-.944.033-1.659.038-2.3.029h-.005c-1.456-.019-2.426-.114-4.22-.153l5.519-.016c.45-.112-.019-.229-2.724-.308,1.106,0,1.569-.092.2-.1-.15.029-3.616.072-2.3.162-5.242.041-13.729-.255-21.689-.041,5.718-.129-4.583-.151,1.765-.2-4.431-.18-3.813.177-8.33.149-.385-.065,2.459.008,3.5-.119-7.51-.072-12.671.291-19.937.236l-.311-.14Zm-14.372.175-4.258.048.418,0-4.2.113c2.582.055,4.283.209.669.281.3-.058-.752-.129.5-.163-2.421-.084-7.733-.166-6.348.046,4.652-.2,1.084.27,4.74.121-1.962.138-3.905.076-5.758.138,1.929-.116-.449-.262-3.347-.317-1.261.034-4.673,0-6.77.058.747.13-1.077.2,2.337.237-1.252.034-3.191.061-5.363-.005.861-.022,2.367-.038,2.263-.085-1.4-.119-3.042-.114-3.948-.165l-2.16.021c.211.012.394.026.525.045l-2.4.114c3.2-.061,1.478.06,1.437.136a18.839,18.839,0,0,0-3.152-.015l2.377.161c-1.149.08-4.056-.116-3.456.043,5.042.064,6.981.036,11.54-.012L46.467,2.7c5.145-.088,3.173.214,8.946.208,2.4-.114,8.682-.008,8.8-.236a40.689,40.689,0,0,0,5.573.1c2.187-.209,8.8-.237,6.8-.332-1.787,0-4.191.112-5.628-.024l3.466-.043-2.275-.114C73.322,2.3,73.208,2.193,72.668,2.026ZM1.474,10.456l-.005.078v-.086Z" transform="translate(0 4.424)" fill="#324879"/>
      <path id="Path_448" data-name="Path 448" d="M0,.563c.18,2,.151,6.932.538,5.965C.111,6.647.473-2.291,0,.563Z" transform="translate(241.728 44.906)" fill="#324879"/>
      <path id="Path_449" data-name="Path 449" d="M0,3.777c.1.348.265.106.28,2.321L.172,0Z" transform="translate(241.311 45.922)" fill="#324879"/>
      <path id="Path_450" data-name="Path 450" d="M.8.246a77.732,77.732,0,0,1,.469,10.073C.227,12.173.976,2.238.007,0c-.1,9.047.81,11.826.9,19.267C1.339,15.579,1.588.517.8.246Z" transform="translate(237.601 41.471)" fill="#324879"/>
      <path id="Path_451" data-name="Path 451" d="M0,.5.234,5.532l.061-.5L.061,0Z" transform="translate(237.086 47.732)" fill="#324879"/>
      <path id="Path_452" data-name="Path 452" d="M.112,5.269C.437,4.816.117,1.681.039,0A47.775,47.775,0,0,0,.112,5.269Z" transform="translate(246.004 15.644)" fill="#324879"/>
      <path id="Path_453" data-name="Path 453" d="M0,.314,38.382,0Z" transform="translate(136.468 70.292)" fill="#324879"/>
      <path id="Path_454" data-name="Path 454" d="M4.446,1.164C14.752.857,19.331.3,29.832.155,16.024-.5,11.594,1.177,0,.506Z" transform="translate(178.963 7.581)" fill="#324879"/>
      <path id="Path_455" data-name="Path 455" d="M6.614,0C8.321.612-1.339.717.158,1.165,7.1,1.016,3.392.583,9.7.635Z" transform="translate(188.185 6.153)" fill="#324879"/>
      <path id="Path_456" data-name="Path 456" d="M3.126,0,0,.318,2.515.2Z" transform="translate(194.566 15.41)" fill="#324879"/>
      <path id="Path_457" data-name="Path 457" d="M4.029.332,5.168.194,0,0Z" transform="translate(168.085 6.364)" fill="#324879"/>
      <path id="Path_458" data-name="Path 458" d="M1.139,0,0,.141Z" transform="translate(172.068 6.417)" fill="#324879"/>
      <path id="Path_459" data-name="Path 459" d="M0,.15,4.644.281,6.943,0Z" transform="translate(193.408 16.511)" fill="#324879"/>
      <path id="Path_460" data-name="Path 460" d="M.567.238l4.154-.2C3.9.08-1.787-.172.567.238Z" transform="translate(194.012 14.059)" fill="#324879"/>
      <path id="Path_461" data-name="Path 461" d="M5.055,0,0,.235.517.3,5.555.061Z" transform="translate(151.865 6.436)" fill="#324879"/>
      <path id="Path_462" data-name="Path 462" d="M4.135,0c2.87.471-8.289.128-2.384.543C7.005.471,4.872.225,4.135,0Z" transform="translate(175.995 15.139)" fill="#324879"/>
      <path id="Path_463" data-name="Path 463" d="M2.093,0C1.411,0,.692.017,0,.069Z" transform="translate(147.826 12.794)" fill="#324879"/>
      <path id="Path_464" data-name="Path 464" d="M0,.092c2.2,0,4.4.18,5.912.044A38.983,38.983,0,0,0,0,.092Z" transform="translate(147.686 12.702)" fill="#324879"/>
      <path id="Path_465" data-name="Path 465" d="M.146.4l2,.033C.1.67,1.07.636,2.891.449c2.115-.016,2-.165,2.248-.266L6.439,0,4.7.17C1.428.166-.572.189.146.4Z" transform="translate(135.025 12.499)" fill="#324879"/>
      <path id="Path_466" data-name="Path 466" d="M0,.052c7.373.175,9.279.26,8.879.625,7,.116,5.912-.512,10.134-.659C11.094.089,9.475-.079,0,.052Z" transform="translate(86.512 4.926)" fill="#324879"/>
      <path id="Path_467" data-name="Path 467" d="M0,.033,2.763,0C1.612-.007.758.008,0,.033Z" transform="translate(99.065 4.911)" fill="#324879"/>
      <path id="Path_468" data-name="Path 468" d="M4.582,0,0,.559,1.681.481Z" transform="translate(147.939 16.002)" fill="#324879"/>
      <path id="Path_469" data-name="Path 469" d="M.191.081C1.558.1,3.749.088,4.826.213,5.219-.153-1.173.058.191.081Z" transform="translate(83.737 4.713)" fill="#324879"/>
      <path id="Path_470" data-name="Path 470" d="M0,.211C.748.435,5.465.3,7.386.387,4.632.34,2.386-.333,0,.211Z" transform="translate(97.362 11.741)" fill="#324879"/>
      <path id="Path_471" data-name="Path 471" d="M0,.058C1.367.081,3.469.327,2.559.63,4.546.45,7.233-.194,0,.058Z" transform="translate(73.393 6.242)" fill="#324879"/>
      <path id="Path_472" data-name="Path 472" d="M0,.111,1.052.235,6.1,0Z" transform="translate(90.986 11.776)" fill="#324879"/>
      <path id="Path_473" data-name="Path 473" d="M7.561,1.533c5.674-.436-9-1.051.771-1.42C-4.274-.343,9.3.73,0,.659,5.445.806,8.114,1.357,7.561,1.533Z" transform="translate(95.556 14.904)" fill="#324879"/>
      <path id="Path_474" data-name="Path 474" d="M2.579.038C1.787.015.93,0,0,0Z" transform="translate(95.558 15.508)" fill="#324879"/>
      <path id="Path_475" data-name="Path 475" d="M0,.147C.824.1,1.387.052,1.906,0,1.258.036.638.081,0,.147Z" transform="translate(57.259 13.5)" fill="#324879"/>
      <path id="Path_476" data-name="Path 476" d="M10.617.654,19.122,0C13.442.435-.85.409.04,1.06A107.8,107.8,0,0,0,12.524.738Z" transform="translate(74.101 15.254)" fill="#324879"/>
      <path id="Path_477" data-name="Path 477" d="M.913.335,4.588.076,0,0C1.313.1-1.064.576.913.335Z" transform="translate(58.595 4.62)" fill="#324879"/>
      <path id="Path_478" data-name="Path 478" d="M0,0,.887.017C.691,0,.409,0,0,0Z" transform="translate(57.924 4.603)" fill="#324879"/>
      <path id="Path_479" data-name="Path 479" d="M.02.212C2.767.258,4.965.24,7.471.124,6.432,0-.414-.113.02.212Z" transform="translate(64.494 13.12)" fill="#324879"/>
      <path id="Path_480" data-name="Path 480" d="M.553.112,6.619,0,0,.049Z" transform="translate(41.253 5.79)" fill="#324879"/>
      <path id="Path_481" data-name="Path 481" d="M4.777,0c-.353.291-.683.609-1.025.916L2.691,2.181c-.336.435-.641.9-.958,1.343s-.63.9-.923,1.362L0,6.318.827,5.2c.562-.929,1.213-1.8,1.834-2.7C3.343,1.653,4.049.817,4.777,0Z" transform="translate(5.309 13.168)" fill="#324879"/>
      <path id="Path_482" data-name="Path 482" d="M1.725.64C5.837.709,9.047.124,7.972,0L0,.026C2.026.538,2.212.011,6.833.141Z" transform="translate(42.743 16.073)" fill="#324879"/>
      <path id="Path_483" data-name="Path 483" d="M18.769,38.758a21.892,21.892,0,0,1-6.476-3.966,25.188,25.188,0,0,1-2.951-3.039c-.367-.448-.667-.833-.88-1.126a2.481,2.481,0,0,1-.316-.605c.238.284.683.758,1.192,1.251s1.031,1.049,1.491,1.436c.938.757,1.393,1.057.106-.264a32.468,32.468,0,0,1-5.883-6.414c-1.23-2.673-1.389-3.574-1.131-3.278.113.155.4.58.766,1.208.385.619.8,1.471,1.445,2.345l.964,1.4c.344.482.754.943,1.144,1.428a30.441,30.441,0,0,0,2.566,2.754c.908.837,1.83,1.592,2.66,2.231.866.6,1.619,1.116,2.2,1.482a35.174,35.174,0,0,1-3.086-2.428l-1.3-1.168-1.121-1.183a24.441,24.441,0,0,1-1.957-2.3,23.3,23.3,0,0,1-1.648-2.347,22.216,22.216,0,0,1-1.437-2.534,23.6,23.6,0,0,1-1.255-2.9A12.056,12.056,0,0,1,3.33,19.1l-.486-1.8c-.132-.633-.227-1.3-.34-2q-.079-.522-.161-1.068c-.022-.367-.045-.741-.068-1.124A41.2,41.2,0,0,0,3.354,20.93c-.086.143-.463-.419-.793-1.55-.177-.561-.376-1.253-.585-2.046-.147-.8-.3-1.712-.44-2.69-.123-.979-.139-2.036-.195-3.128-.015-.3-.015-.518-.012-.727l0-.66c0-.442,0-.889.006-1.338,0-1.8,0-3.616.005-5.272C1.086,7.736.87,5.3.637,2.224A10.472,10.472,0,0,0,.546,1.043L.463,0V.795C.4.738.318.914.208,1.486.294,4.265.213,6.718.11,8.922c-.027.552-.053,1.087-.079,1.609C.022,10.813,0,11,0,11.35l.008,1q.025.986.049,1.921c.047.622.145,1.227.228,1.818.064-1.2.257-.787.538.56.116.68.359,1.576.645,2.627a29.984,29.984,0,0,0,1.137,3.486,17.143,17.143,0,0,0,.806,1.883c.305.626.582,1.281.933,1.9A31.183,31.183,0,0,0,6.6,30.059c.41.535.777,1.082,1.2,1.546l1.2,1.32a18.356,18.356,0,0,0,2.077,1.914,31.891,31.891,0,0,0,5.58,3.865c.73.43,1.514.764,2.274,1.14.209.158.138.191-.438-.007a18.914,18.914,0,0,1-3.385-1.571,37.979,37.979,0,0,0,7.49,3.28,31.186,31.186,0,0,0,3.712.8c.923.106,1.414.123,1.178.01.508.07,1.015.164,1.524.206l1.533.084,1.526.066h1.177l4.7,0,9.41-.007c.586.04,1.172.088,1.606.157.652-.06.761-.109.675-.158l82-.062c-4.045-.076-7.545-.3-11.716-.4,6.26-.639-6.84-.115-5-.719a80.457,80.457,0,0,1,9.384,0c.914-.3-2.581-.574-2.177-.938-10.342-.384-11.925,1.075-22.035.853.4-.365,3.526-.685-3.092-.635l1.682-.079c-10.6.409-8.257-.826-14.927.176l.175-.527c-4.807.4-14.159.4-19.43.472l.315-.1c-14.784.6-8.3.128-24.9.381l7.641-.615c-5.728-.255-7.019.414-11.13.345.294-.1-.659-.488,3.224-.583l-5.036.235-2.518.117L29.04,40.58a29.651,29.651,0,0,1-11.909-3.367c-1.33-.69-1.954-.981-2.106-1.027s.116.216.606.549L17.4,37.928C18.019,38.3,18.581,38.6,18.769,38.758Z" transform="translate(0.287 29.325)" fill="#324879"/>
      <path id="Path_484" data-name="Path 484" d="M.088,4.078C.069,3.43.047,2.737.025,1.99.022,1.375.019.715.016,0,.011.69.005,1.332,0,1.944.009,2.613.055,3.394.088,4.078Z" transform="translate(2.474 40.241)" fill="#324879"/>
      <path id="Path_485" data-name="Path 485" d="M5.76,0,0,.005C1.784.037,3.644.047,5.76,0Z" transform="translate(65.087 71.958)" fill="#324879"/>
      <path id="Path_486" data-name="Path 486" d="M.583,3.224C.311,6.717.2.609,0,0L.009,12.51c.2-.056.431,1.182.616.93Z" transform="translate(0.736 46.505)" fill="#324879"/>
      <path id="Path_487" data-name="Path 487" d="M0,3.622A22.447,22.447,0,0,1,.388,6.853L.383,0C.23.043.092.811,0,3.622Z" transform="translate(0.362 53.662)" fill="#324879"/>
      <path id="Path_488" data-name="Path 488" d="M0,0,.018,2.216.175,5.565Z" transform="translate(11.203 55.053)" fill="#324879"/>
      <path id="Path_489" data-name="Path 489" d="M4.735,7.041c-.349-.505-.815-1.075-1.327-1.674-.439-.656-.993-1.295-1.432-1.981A35.1,35.1,0,0,1,0,0,33.132,33.132,0,0,0,1.944,3.687c.2.333.46.642.847,1.163A21.376,21.376,0,0,0,4.735,7.041Z" transform="translate(12.02 50.192)" fill="#324879"/>
      <path id="Path_490" data-name="Path 490" d="M0,0C.386.609.778,1.215,1.2,1.8A18.878,18.878,0,0,0,2.6,3.43L2.374,3.1c-.44-.475-.836-.989-1.273-1.477C.747,1.077.349.554,0,0Z" transform="translate(15.802 50.576)" fill="#324879"/>
      <path id="Path_491" data-name="Path 491" d="M0,.034,2.724,0C1.477,0,.662.012,0,.034Z" transform="translate(89.498 69.849)" fill="#324879"/>
      <path id="Path_492" data-name="Path 492" d="M5.073.5c13.3.592-8.714.492-4.536,1.25L7.774,1.5l-.616.2,8.826-.066c-1.811-.349-3.171-.37-2.778-.736,11.782.143,3.715.434,12.358.895l13.17-.067-1.066.11a12.951,12.951,0,0,0,1.98-.114L84.027,1.5C92.1,1.21,79.562.842,85.518.3c-9.359,0-23.266-.387-24.061.342.315-.1.933-.3-.964-.389l-5.412.6,5.161.191c-5.443.6-23.017.465-26.2.093,9.995-.2,4.979-.923,18.9-.532C52.323.426,49.774.1,52.909,0,36.595.212,21.972-.12,5.073.5Z" transform="translate(49.961 69.883)" fill="#324879"/>
      <path id="Path_493" data-name="Path 493" d="M.129,0,0,.066C.294.031.39,0,.129,0Z" transform="translate(147.668 70.035)" fill="#324879"/>
      <path id="Path_494" data-name="Path 494" d="M7.951,0,0,.714,12.4.656l.9-.5A50.007,50.007,0,0,1,6.169.341Z" transform="translate(137.193 69.945)" fill="#324879"/>
      <path id="Path_495" data-name="Path 495" d="M0,1.3C6.4,1.089,6.056.5,2.563.23c5.88-.274,3.1.634,7.152.011C9.582-.184,2.335.065.67.145Z" transform="translate(133.753 69.788)" fill="#324879"/>
      <path id="Path_496" data-name="Path 496" d="M2.636.31l1.8-.245L0,0Z" transform="translate(110.588 70.471)" fill="#324879"/>
      <path id="Path_497" data-name="Path 497" d="M0,.417,4.4.482A3.305,3.305,0,0,0,3.078,0Z" transform="translate(112.791 70.119)" fill="#324879"/>
      <path id="Path_498" data-name="Path 498" d="M0,0C1.865.044,3.927.077,6.436.093Z" transform="translate(120.169 70.772)" fill="#324879"/>
      <path id="Path_499" data-name="Path 499" d="M0,0,.149.077,5.034.151Z" transform="translate(118.038 70.621)" fill="#324879"/>
      <path id="Path_500" data-name="Path 500" d="M0,0C.715.414,1.553.848,7.919.733L6.668.1Z" transform="translate(114.118 70.601)" fill="#324879"/>
      <path id="Path_501" data-name="Path 501" d="M.529.3,5.565.064,5.032,0,0,.234Z" transform="translate(46.26 60.422)" fill="#324879"/>
      <path id="Path_502" data-name="Path 502" d="M0,.227C1.245.154,2.188.079,3.045,0A26.927,26.927,0,0,0,0,.227Z" transform="translate(66.611 60.849)" fill="#324879"/>
      <path id="Path_503" data-name="Path 503" d="M18.553.475c5.921.416-8.171.55,2.8.734.967.387-4.175.886-9.338.693.409-.364,5.03-.233,1.856-.605-3.429.422-4.734.135-3.539.684C4.559,2.323,3.916,2.713,0,3.07c6.975-.242,21.621.322,30.473-.382,4.88-.66,1.92-1.561,1.941-2.514C31.679-.05,19.029-.156,18.553.475Z" transform="translate(36.526 57.823)" fill="#324879"/>
      <path id="Path_504" data-name="Path 504" d="M5.26.021C2.52-.026,1.682.012,0,.091.453.417,3.046.035,5.26.021Z" transform="translate(72.694 57.471)" fill="#324879"/>
      <path id="Path_505" data-name="Path 505" d="M3.1.538C3.625.4,8.583.235,7.518,0L0,.171A11.03,11.03,0,0,1,3.1.538Z" transform="translate(72.723 63.079)" fill="#324879"/>
      <path id="Path_506" data-name="Path 506" d="M0,.077,3.3,0C2.474-.009,1.454.01,0,.077Z" transform="translate(71.759 63.246)" fill="#324879"/>
      <path id="Path_507" data-name="Path 507" d="M.411.085.053,0C-.053.029-.032.058.411.085Z" transform="translate(75.352 63.617)" fill="#324879"/>
      <path id="Path_508" data-name="Path 508" d="M0,.033C-.1.294,3.246.138,4.928.061,3.56.039,1.64-.047,0,.033Z" transform="translate(129.567 70.975)" fill="#324879"/>
      <path id="Path_509" data-name="Path 509" d="M0,0,2.96.208A23.372,23.372,0,0,0,0,0Z" transform="translate(192.683 69.98)" fill="#324879"/>
      <path id="Path_510" data-name="Path 510" d="M0,.133A2.116,2.116,0,0,1,.6,0,1.77,1.77,0,0,0,0,.133Z" transform="translate(193.972 62.702)" fill="#324879"/>
      <path id="Path_511" data-name="Path 511" d="M0,.306C2.021.088,8.266.426,10.51.1l-.285.1L14.4,0C10.487.029,2.267-.012,0,.306Z" transform="translate(193.113 62.396)" fill="#324879"/>
    </g>
  </g>
</svg>