<svg xmlns="http://www.w3.org/2000/svg" width="186" height="186" viewBox="0 0 186 186">
  <path id="Subtraction_1" data-name="Subtraction 1" d="M93,186a93.686,93.686,0,0,1-18.743-1.889A92.489,92.489,0,0,1,41,170.117,93.272,93.272,0,0,1,7.308,129.2a92.532,92.532,0,0,1-5.419-17.457,93.907,93.907,0,0,1,0-37.486A92.49,92.49,0,0,1,15.883,41,93.272,93.272,0,0,1,56.8,7.308,92.532,92.532,0,0,1,74.257,1.889a93.907,93.907,0,0,1,37.486,0A92.492,92.492,0,0,1,145,15.883,93.272,93.272,0,0,1,178.692,56.8a92.533,92.533,0,0,1,5.419,17.457,93.908,93.908,0,0,1,0,37.486A92.49,92.49,0,0,1,170.117,145,93.272,93.272,0,0,1,129.2,178.692a92.535,92.535,0,0,1-17.457,5.419A93.689,93.689,0,0,1,93,186Zm15.033-93.155a8.248,8.248,0,0,1,7.081,3.244c1.538,2.1,2.318,5.215,2.318,9.26V134.61H134.61V99.319a29.422,29.422,0,0,0-1.507-9.761,18.606,18.606,0,0,0-4.2-6.915c-3.507-3.583-8.548-5.476-14.578-5.476a20.169,20.169,0,0,0-7.616,1.439,19.329,19.329,0,0,0-5.223,3.166,18.193,18.193,0,0,0-3.968,4.606V78.87H80.96V134.61H97.516V105.349c0-3.948.9-7.04,2.668-9.192C101.992,93.959,104.633,92.845,108.032,92.845ZM52.66,78.87V134.61H69.924V78.87ZM61.209,51a10.1,10.1,0,0,0-7.219,3.013,10.3,10.3,0,0,0,7.219,17.559,10.1,10.1,0,0,0,7.218-3.013,10.344,10.344,0,0,0,0-14.546A10.1,10.1,0,0,0,61.209,51Z" transform="translate(0)" fill="#fff"/>
</svg>
