<svg id="Group_439" data-name="Group 439" xmlns="http://www.w3.org/2000/svg" width="225.829" height="5.266" viewBox="0 0 225.829 5.266">
  <path id="Path_3846" data-name="Path 3846" d="M-396.493,124.27c0,.015-.032.06-.018.1.043.125-.112.2-.505.247-.242.028-.426.1-.661.137a21.585,21.585,0,0,1-2.663.221,2.857,2.857,0,0,1-.422-.018,9.711,9.711,0,0,0-2.627.053,1.263,1.263,0,0,1-.218.033c-1.125-.052-2.036.183-3.095.214-.979.028-1.96.055-2.941.069-.294,0-.592-.043-.892-.056a5.828,5.828,0,0,0-.721,0,27.79,27.79,0,0,1-3.237.064c-1.127-.031-2.263-.029-3.395-.041-.308,0-.63.013-.923-.009a30.87,30.87,0,0,0-3.764.114c-.319.014-.648.008-.972.007q-1.6,0-3.206-.011c-.9,0-1.81-.022-2.715-.02-.739,0-1.476.037-2.216.039-.9,0-1.809-.015-2.713-.028a17.329,17.329,0,0,0-2.558.041,4.516,4.516,0,0,1-.789,0,6.7,6.7,0,0,0-1.379.049,10.8,10.8,0,0,1-1.195.068,11.045,11.045,0,0,0-1.8.092,1.481,1.481,0,0,1-.235.02c-.9.018-1.8.05-2.7.045-.818,0-1.633-.052-2.451-.076-.241-.007-.488,0-.73.005-.754.016-1.509.035-2.264.05-.287.006-.583-.009-.864.005-1.612.084-3.241.082-4.867.1-.349,0-.7.023-1.047.024-.324,0-.652-.02-.975-.015-.509.008-1.022.018-1.523.046a22.268,22.268,0,0,1-2.734-.077,6.218,6.218,0,0,0-.832-.01c-1.475.11-2.969.15-4.482.131-.882-.012-1.767-.023-2.645-.051-1.267-.042-2.528-.1-3.793-.148a4.449,4.449,0,0,0-.725.02,9.947,9.947,0,0,1-1.387.061c-1.46.006-2.918.028-4.376.042-.308,0-.615,0-.923-.007q-1.02-.007-2.039-.015-2.071-.017-4.141-.037c-1.05-.012-2.1-.031-3.148-.043a3.506,3.506,0,0,0-.538.03,15.472,15.472,0,0,1-2.217.135c-.778.007-1.554.053-2.33.083-.123,0-.246.016-.368.015-1.588-.007-3.176-.012-4.763-.025-.3,0-.6-.045-.908-.05-.466-.008-.95-.022-1.4.007a17.037,17.037,0,0,1-1.836.051c-1.12-.044-2.221.015-3.321.068A12.775,12.775,0,0,1-510.4,126c-.41-.035-.852-.037-1.278-.053-.593-.023-1.192-.038-1.779-.072-1-.057-1.994-.08-3.013-.043-1.078.04-2.152.06-3.252.007-.821-.04-1.682,0-2.526,0-.68,0-1.362,0-2.04.013-.516.012-1.031.035-1.545.066-.806.049-1.638.06-2.462.078-.614.014-1.232.013-1.85.017a14.962,14.962,0,0,1-1.635-.081,6,6,0,0,0-1.669.051,8.382,8.382,0,0,1-2.013.125c-.293-.017-.613,0-.918.014-1.2.045-2.405.1-3.608.141-.159.006-.325-.011-.489-.011-.635,0-1.272-.005-1.9.01-1.271.033-2.537.085-3.809.114-.863.02-1.733.017-2.6.02-.391,0-.784-.014-1.174-.01-1.267.01-2.536-.079-3.806.026-.445.037-.945.009-1.419.012-.512,0-1.024,0-1.536.01-1.213.018-2.424.052-3.637.057-1.485.006-2.971-.02-4.456-.014-.671,0-1.337.066-2.01.077a23.305,23.305,0,0,1-2.877-.02,6.03,6.03,0,0,0-1.272-.017c-.225.023-.489.012-.734.012l-3.141-.007c-.762,0-1.527.014-2.287,0-1.669-.031-3.288.047-4.9.171-1.36.1-2.722.206-4.092.3-.812.054-1.63.009-2.451,0-1.412-.023-2.836.005-4.254.026-.673.009-1.342.048-2.012.078-.343.015-.68.045-1.024.06-.38.016-.771.043-1.146.03-1.814-.058-3.621-.051-5.437,0-.811.024-1.643,0-2.462-.022-.883-.018-1.764-.05-2.646-.077-.327-.01-.658-.016-.98-.035-.889-.052-1.771-.114-2.661-.165a14.09,14.09,0,0,1-2.04-.258,6.5,6.5,0,0,0-.676-.081c-.412-.037-.835-.063-1.245-.1-.511-.049-1.012-.107-1.519-.159a3.379,3.379,0,0,1-1-.211,5.962,5.962,0,0,0-1.566-.414c-.552-.086-.977-.245-1.482-.362a2.22,2.22,0,0,1-1.44-.739,1.052,1.052,0,0,1-.09-.808c.018-.123.291-.245.5-.359a2.886,2.886,0,0,1,.712-.306,5.76,5.76,0,0,1,2.058-.318,6.955,6.955,0,0,0,1.178-.072c.624-.074,1.318-.093,1.987-.127.508-.025,1.025-.035,1.537-.054a3.149,3.149,0,0,0,.411-.037,20.592,20.592,0,0,1,4.1-.261c.448.011.916-.056,1.376-.087.218-.014.433-.034.653-.039.819-.02,1.64-.035,2.461-.055,1.046-.025,2.1-.04,3.135-.085,1.428-.062,2.833.016,4.249.031.678.007,1.362-.02,2.038-.007.82.016,1.637.051,2.45.089.792.036,1.573.091,2.365.124.36.014.735,0,1.1-.01.308-.005.617-.029.922-.023q2.244.047,4.491.037c.51,0,1.022.037,1.533.058.062,0,.123.009.184.008,1.5-.024,2.989.077,4.505.021,1.741-.064,3.494-.044,5.234.053,1.034.058,2.1.066,3.12.142,1.946.146,3.913.194,5.9.171.965-.011,1.924-.066,2.887-.1.28-.009.568.005.851,0,.716-.016,1.429-.042,2.146-.054.389-.007.782.007,1.173.012l1.41.02c.062,0,.125,0,.186,0,1.43.037,2.867.058,4.288.114,1.544.062,3.082.129,4.643.119.083,0,.167,0,.248,0,.977-.055,1.959-.06,2.951-.06.788,0,1.575-.06,2.363-.092,1.29-.052,2.581-.041,3.876-.018.8.014,1.609,0,2.414,0,.309,0,.684.053.86.033.456-.054.886-.013,1.321-.025.51-.014,1.027,0,1.541-.006.243,0,.483-.018.725-.027.117,0,.236-.012.355-.011.74,0,1.48.012,2.22.018.371,0,.743,0,1.113.008l3.836.06c.163,0,.335,0,.493-.014a6.5,6.5,0,0,1,1.387.026,7.434,7.434,0,0,0,.794.03c1.34.02,2.684.031,4.022.06.838.018,1.676.1,2.5.085,1.244-.019,2.473,0,3.7.035.776.023,1.542.079,2.317.11,1.371.055,2.741.117,4.118.15,1.581.039,3.175.062,4.737-.047.977-.068,1.949-.09,2.943-.077.265,0,.543,0,.8-.024a25.4,25.4,0,0,1,3.012,0c.382.013.79.009,1.164-.017.9-.062,1.794-.024,2.692-.018.225,0,.448.02.674.026,1.229.038,2.459.082,3.691.108.883.019,1.772.019,2.66.019,1.257,0,2.513-.018,3.767-.009,1.31.009,2.643,0,3.92.072,1.1.062,2.208.073,3.307.116.958.037,1.941.047,2.9.028,1.1-.022,2.169.061,3.259.053.536,0,1.072.022,1.606.015,2.266-.028,4.53-.069,6.8-.093,1.275-.014,2.553,0,3.828-.009.637,0,1.28-.023,1.907-.056,1.036-.053,2.055,0,3.084.01,1.606.022,3.215.013,4.823.018,1.261,0,2.523.028,3.78.01,1.833-.026,3.662-.082,5.493-.126.123,0,.248-.012.37-.009,1.432.026,2.832-.073,4.25-.1.839-.017,1.689.022,2.535.03.658.007,1.317,0,1.976.01,1.216.014,2.431.033,3.647.049.433.006.866.012,1.3.012,1.672,0,3.346-.017,5.016,0,.982.01,1.968.059,2.937.116.845.05,1.676.04,2.522.023,1.976-.039,3.956-.07,5.936-.027.1,0,.21,0,.308.011,1.286.114,2.574.227,3.855.346C-396.791,123.665-396.338,123.867-396.493,124.27Z" transform="translate(622.293 -121.924)" fill="#f9f9f9"/>
</svg>
